<svg width="22" height="22" viewBox="0 0 22 22" fill="none" xmlns="http://www.w3.org/2000/svg">
<path d="M6 3V1C6 0.734784 6.10536 0.48043 6.29289 0.292893C6.48043 0.105357 6.73478 0 7 0C7.26522 0 7.51957 0.105357 7.70711 0.292893C7.89464 0.48043 8 0.734784 8 1V3C8 3.26522 7.89464 3.51957 7.70711 3.70711C7.51957 3.89464 7.26522 4 7 4C6.73478 4 6.48043 3.89464 6.29289 3.70711C6.10536 3.51957 6 3.26522 6 3ZM1 8H3C3.26522 8 3.51957 7.89464 3.70711 7.70711C3.89464 7.51957 4 7.26522 4 7C4 6.73478 3.89464 6.48043 3.70711 6.29289C3.51957 6.10536 3.26522 6 3 6H1C0.734784 6 0.48043 6.10536 0.292893 6.29289C0.105357 6.48043 0 6.73478 0 7C0 7.26522 0.105357 7.51957 0.292893 7.70711C0.48043 7.89464 0.734784 8 1 8ZM22 12V21C22 21.2652 21.8946 21.5196 21.7071 21.7071C21.5196 21.8946 21.2652 22 21 22H7C6.73478 22 6.48043 21.8946 6.29289 21.7071C6.10536 21.5196 6 21.2652 6 21V7C6 6.73478 6.10536 6.48043 6.29289 6.29289C6.48043 6.10536 6.73478 6 7 6H16C16.2626 6.01246 16.5126 6.11607 16.707 6.293L21.707 11.293C21.887 11.4855 21.9911 11.7366 22 12ZM20 13H16C15.7348 13 15.4804 12.8946 15.2929 12.7071C15.1054 12.5196 15 12.2652 15 12V8H8V20H20V13Z" fill="white"/>
</svg>
