<svg width="22" height="22" viewBox="0 0 22 22" fill="none" xmlns="http://www.w3.org/2000/svg">
<path d="M0 17.891C5.66374e-05 18.1562 0.105451 18.4105 0.293 18.598L3.4 21.707C3.58753 21.8945 3.84184 21.9998 4.107 21.9998C4.37216 21.9998 4.62647 21.8945 4.814 21.707L12.588 13.934L15.7 10.824C15.8875 10.6365 15.9928 10.3822 15.9928 10.117C15.9928 9.85184 15.8875 9.59753 15.7 9.41L12.59 6.3C12.4025 6.11253 12.1482 6.00721 11.883 6.00721C11.6178 6.00721 11.3635 6.11253 11.176 6.3L8.067 9.409L0.293 17.184C0.105451 17.3715 5.66374e-05 17.6258 0 17.891ZM11.883 8.422L13.583 10.122L11.883 11.822L10.188 10.122L11.883 8.422ZM8.774 11.531L10.474 13.231L4.114 19.59L2.419 17.89L8.774 11.531ZM18.809 4.605L17.254 6.16C17.0654 6.34216 16.8128 6.44295 16.5506 6.44067C16.2884 6.4384 16.0376 6.33323 15.8522 6.14782C15.6668 5.96241 15.5616 5.7116 15.5593 5.4494C15.557 5.1872 15.6578 4.9346 15.84 4.746L17.4 3.191C17.4922 3.09549 17.6026 3.01931 17.7246 2.9669C17.8466 2.91449 17.9778 2.8869 18.1106 2.88575C18.2434 2.8846 18.3751 2.9099 18.498 2.96018C18.6208 3.01046 18.7325 3.08471 18.8264 3.17861C18.9203 3.2725 18.9945 3.38415 19.0448 3.50705C19.0951 3.62994 19.1204 3.76162 19.1193 3.8944C19.1181 4.02718 19.0905 4.1584 19.0381 4.2804C18.9857 4.40241 18.9095 4.51275 18.814 4.605H18.809ZM22 10.9C22 11.1652 21.8946 11.4196 21.7071 11.6071C21.5196 11.7946 21.2652 11.9 21 11.9H18.8C18.5348 11.9 18.2804 11.7946 18.0929 11.6071C17.9054 11.4196 17.8 11.1652 17.8 10.9C17.8 10.6348 17.9054 10.3804 18.0929 10.1929C18.2804 10.0054 18.5348 9.9 18.8 9.9H21C21.2652 9.9 21.5196 10.0054 21.7071 10.1929C21.8946 10.3804 22 10.6348 22 10.9ZM18.809 17.189C18.9137 17.2786 18.9988 17.3888 19.059 17.5129C19.1191 17.6369 19.1529 17.772 19.1583 17.9097C19.1637 18.0474 19.1406 18.1848 19.0904 18.3131C19.0402 18.4415 18.9641 18.5581 18.8667 18.6556C18.7693 18.7531 18.6528 18.8295 18.5245 18.8798C18.3962 18.9302 18.2589 18.9535 18.1212 18.9483C17.9835 18.9431 17.8483 18.9094 17.7242 18.8495C17.6001 18.7896 17.4897 18.7046 17.4 18.6L15.84 17.043C15.7445 16.9508 15.6683 16.8404 15.6159 16.7184C15.5635 16.5964 15.5359 16.4652 15.5347 16.3324C15.5336 16.1996 15.5589 16.0679 15.6092 15.945C15.6595 15.8221 15.7337 15.7105 15.8276 15.6166C15.9215 15.5227 16.0331 15.4485 16.156 15.3982C16.2789 15.3479 16.4106 15.3226 16.5434 15.3237C16.6762 15.3249 16.8074 15.3525 16.9294 15.4049C17.0514 15.4573 17.1618 15.5335 17.254 15.629L18.809 17.189ZM4.816 3.191L6.371 4.746C6.46651 4.83825 6.54269 4.94859 6.5951 5.0706C6.64751 5.1926 6.6751 5.32382 6.67625 5.4566C6.6774 5.58938 6.6521 5.72106 6.60182 5.84395C6.55154 5.96685 6.47729 6.0785 6.3834 6.17239C6.2895 6.26629 6.17785 6.34054 6.05495 6.39082C5.93206 6.4411 5.80038 6.4664 5.6676 6.46525C5.53482 6.4641 5.4036 6.43651 5.2816 6.3841C5.15959 6.33169 5.04925 6.25551 4.957 6.16L3.4 4.605C3.30716 4.51202 3.23353 4.40167 3.18334 4.28024C3.13314 4.15881 3.10735 4.02869 3.10744 3.89729C3.10754 3.7659 3.13351 3.63581 3.18388 3.51445C3.23425 3.39309 3.30802 3.28284 3.401 3.19C3.49398 3.09716 3.60433 3.02353 3.72576 2.97334C3.84719 2.92314 3.97731 2.89735 4.10871 2.89744C4.2401 2.89754 4.37019 2.92351 4.49155 2.97388C4.61291 3.02425 4.72316 3.09802 4.816 3.191ZM11.106 0C11.3712 0 11.6256 0.105357 11.8131 0.292893C12.0006 0.48043 12.106 0.734784 12.106 1V3.2C12.106 3.46522 12.0006 3.71957 11.8131 3.90711C11.6256 4.09464 11.3712 4.2 11.106 4.2C10.8408 4.2 10.5864 4.09464 10.3989 3.90711C10.2114 3.71957 10.106 3.46522 10.106 3.2V1C10.106 0.734784 10.2114 0.48043 10.3989 0.292893C10.5864 0.105357 10.8408 0 11.106 0Z" fill="white"/>
</svg>
